<?xml version="1.0" encoding="UTF-8" standalone="no"?>
<svg xmlns:inkscape="http://www.inkscape.org/namespaces/inkscape" xmlns:rdf="http://www.w3.org/1999/02/22-rdf-syntax-ns#" xmlns="http://www.w3.org/2000/svg" sodipodi:docname="logo.svg" height="195" width="1336.2" version="1.1" xmlns:cc="http://creativecommons.org/ns#" xmlns:dc="http://purl.org/dc/elements/1.1/" inkscape:version="0.91 r13725" viewBox="0 0 1336.2 195.00017" xmlns:sodipodi="http://sodipodi.sourceforge.net/DTD/sodipodi-0.dtd">
<path d="m0.21912 0-0.24414 168s640.95 0.00016 975.25 0.00016v27h111v-27l250-0.00016v-168c-454.92 0.1881-1336 0-1336 0zm1002.3 28h111.01v112.07h-55.678v27.934h-55zm139 0h166.01v111h-27.674v-83h-27.697v83h-27.637v-83.334h-27.666v83.334h-55.332zm-1113.7 0.49219h55.754v83.629h55.754v27.877h-111.51v-83.629zm139.38 0h111.51v111.51h-111.51v-83.631zm139.38 0h111.51v27.877h-55.754v55.754h55.754v27.877h-111.51v-83.631zm139.38 0h111.51v111.51h-27.877v-27.877h-27.877v27.877h-55.754v-83.631zm139.38 0h55.754v83.629h55.754v27.877h-111.51v-83.629zm279.14 0h110.52v111h-27.518v-83.934h-27.768v83.934h-55.232zm192.7 26.508v57h29v-57zm-834.24 1.3691v55.754h27.877v-55.754zm278.77 0v27.877h27.877v-27.877zm223.02 0h111.51v55.752h-111.51v-27.877z" fill="#6ccb99"/>
</svg>
