<svg xmlns="http://www.w3.org/2000/svg" height="195" width="1224.2" viewBox="0 0 1224.1791 195.00017">
<path fill="#6ccb99" d="M.244 0L0 168h863.18v27h111v-27h250V0C769.24.188.18 0 .18 0zm890.23 28h111.01v112.07h-55.678v27.934h-55zm139 0h166.01v111h-27.674V56h-27.697v83h-27.637V55.666h-27.666V139h-55.332zm-1001.6.492h55.754v83.63h27.63v27.876H27.87zm111.25 0h111.51v111.51h-111.51zm139.38 0h83.363V56.37H334.26v55.753h27.607V140h-83.363zm111.23 0h111.51v111.51h-27.877v-27.877H445.49v27.877h-55.754zm139.38 0h55.754v83.63h27.566v27.876h-83.322zm223.34 0h110.52v111h-27.518V55.558h-27.768v83.934h-55.232zM945.154 55v57h29V55zm-750.3 1.37v55.753h27.877V56.37zm250.62 0v27.876h27.877V56.37zm194.83 0h83.9v55.75h-83.9z"/>
</svg>
